<svg xmlns="http://www.w3.org/2000/svg" viewBox="-10780 278.282 154.853 29.949">
  <defs>
    <style>
      .cls-1 {
        fill: #191919;
      }
    </style>
  </defs>
  <g id="グループ化_118" data-name="グループ化 118" transform="translate(-10780 278.282)">
    <g id="グループ化_16" data-name="グループ化 16">
      <path id="パス_69" data-name="パス 69" class="cls-1" d="M49.883,11.65c-2.651,1.964-8.15,2.357-10.507,2.258s-7.266-.687-8.445-3.731H53.811C53.712,8.8,52.927,3.5,40.653,3.5,33.583,3.5,27.2,5.857,27.2,9.49c0,0-.491,4.419,7.659,5.793h0c5.008.982,13.845.687,18.461-2.258Zm-9.23-6.383c2.946,0,7.463.589,9.034,3.142H31.029C32.9,5.66,38.59,5.267,40.653,5.267Z" transform="translate(-0.491 -0.063)"/>
      <path id="パス_70" data-name="パス 70" class="cls-1" d="M122.583,11.65c-2.651,1.964-8.15,2.357-10.507,2.258s-7.266-.687-8.445-3.731h22.879c-.1-1.375-.884-6.677-13.158-6.677C106.283,3.5,99.9,5.857,99.9,9.49c0,0-.491,4.419,7.659,5.793h0c5.008.982,13.845.687,18.461-2.258Zm-9.132-6.383c2.946,0,7.463.589,9.034,3.142H103.828C105.693,5.66,111.389,5.267,113.451,5.267Z" transform="translate(-1.804 -0.063)"/>
      <path id="パス_71" data-name="パス 71" class="cls-1" d="M3.535.4V13.263h16.2l-1.866,1.866H0V.4H3.535Z" transform="translate(0 -0.007)"/>
      <path id="パス_72" data-name="パス 72" class="cls-1" d="M141.135.4V13.263h16.2l-1.866,1.866H137.6V.4h3.535Z" transform="translate(-2.485 -0.007)"/>
      <path id="パス_73" data-name="パス 73" class="cls-1" d="M77.183,3.437a26.016,26.016,0,0,0-8.052,1.178V0H65.4V14.238a46.3,46.3,0,0,0,12.176,1.473c7.07-.1,12.372-2.651,12.372-5.892C89.949,5.106,83.861,3.437,77.183,3.437Zm8.936,6.284c-.1,1.964-2.553,3.24-5.3,3.83a28.192,28.192,0,0,1-11.685-.393V6.481A21.977,21.977,0,0,1,77.183,5.2C84.155,5.2,86.217,7.856,86.119,9.721Z" transform="translate(-1.181)"/>
      <path id="パス_74" data-name="パス 74" class="cls-1" d="M37.686,25.2v4.517h3.83l-.491.491H36.9V25.2Z" transform="translate(-0.666 -0.455)"/>
      <path id="パス_75" data-name="パス 75" class="cls-1" d="M44.386,25.2v4.517h3.83l-.491.491H43.6V25.2Z" transform="translate(-0.787 -0.455)"/>
      <path id="パス_76" data-name="パス 76" class="cls-1" d="M61.565,25.2l-3.24,2.848V30.11H57.44V28.048L54.2,25.2h1.08l2.553,2.258L60.386,25.2Z" transform="translate(-0.979 -0.455)"/>
      <path id="パス_77" data-name="パス 77" class="cls-1" d="M33.786,30.2h.884L31.135,25,27.6,30.2h.884l.786-1.277H33Zm-2.651-4.026,1.473,2.258H29.662Z" transform="translate(-0.498 -0.451)"/>
      <path id="パス_78" data-name="パス 78" class="cls-1" d="M117.809,25.2,115.059,30.3,112.6,26.377,110.248,30.3,107.4,25.2h.884l1.964,3.731L112.6,25.1l2.357,3.83,1.964-3.731Z" transform="translate(-1.939 -0.453)"/>
      <path id="パス_79" data-name="パス 79" class="cls-1" d="M67.124,25.1C64.866,25.1,63,26.18,63,27.751c0,1.473,1.866,2.651,4.124,2.651s4.124-1.08,4.124-2.651S69.383,25.1,67.124,25.1Zm0,4.615c-1.768,0-3.24-.884-3.24-2.062s1.473-2.062,3.24-2.062,3.24.884,3.24,2.062C70.266,28.93,68.892,29.715,67.124,29.715Z" transform="translate(-1.138 -0.453)"/>
      <path id="パス_80" data-name="パス 80" class="cls-1" d="M101.524,25.1c-2.258,0-4.124,1.08-4.124,2.651,0,1.473,1.866,2.651,4.124,2.651s4.124-1.08,4.124-2.651S103.783,25.1,101.524,25.1Zm0,4.615c-1.767,0-3.24-.884-3.24-2.062s1.473-2.062,3.24-2.062,3.24.884,3.24,2.062C104.666,28.93,103.292,29.715,101.524,29.715Z" transform="translate(-1.759 -0.453)"/>
      <path id="パス_81" data-name="パス 81" class="cls-1" d="M77.142,30.308C74.1,30.308,74,28.639,74,28.54V25.3h.884v3.142c0,.295.2,1.277,2.258,1.277s2.258-.982,2.258-1.277V25.3h.884v3.24c0,.1-.1,1.767-3.142,1.767Z" transform="translate(-1.336 -0.457)"/>
      <path id="パス_82" data-name="パス 82" class="cls-1" d="M126.386,25.2V30.3l-5.4-3.83v3.731H120.2V25.1l5.4,3.83V25.2h.786Z" transform="translate(-2.17 -0.453)"/>
      <path id="パス_83" data-name="パス 83" class="cls-1" d="M86.642,28.438c1.178-.1,2.455-.589,2.455-1.669,0-1.277-1.866-1.767-3.633-1.669-1.178.1-1.866.2-1.964.2v4.812h.786V25.689c.2,0,.589-.1,1.178-.1,1.375,0,2.749.295,2.749,1.178,0,1.178-2.651,1.277-3.24,1.08v.2l3.437,2.062h1.375Z" transform="translate(-1.508 -0.453)"/>
    </g>
  </g>
</svg>
